<?xml version="1.0" encoding="UTF-8"?>
<svg xmlns="http://www.w3.org/2000/svg" xmlns:xlink="http://www.w3.org/1999/xlink" width="1083.2" height="274.4" viewBox="0 0 1083.2 274.4">
<defs>
<clipPath id="clip-0">
<path clip-rule="nonzero" d="M 50.398438 21.601562 L 70.398438 21.601562 L 70.398438 80 L 50.398438 80 Z M 50.398438 21.601562 "/>
</clipPath>
<clipPath id="clip-1">
<path clip-rule="evenodd" d="M -7.242188 274.65625 L 1032.757812 274.65625 L 1032.757812 -0.542969 L -7.242188 -0.542969 Z M 70.675781 79.695312 L 70.195312 80.179688 L 64.675781 75.855469 L 69.664062 79.121094 L 66.789062 73.9375 Z M 70.675781 79.695312 "/>
</clipPath>
<clipPath id="clip-2">
<path clip-rule="nonzero" d="M 50.398438 79.199219 L 70.398438 79.199219 L 70.398438 137.601562 L 50.398438 137.601562 Z M 50.398438 79.199219 "/>
</clipPath>
<clipPath id="clip-3">
<path clip-rule="evenodd" d="M -7.242188 274.65625 L 1032.757812 274.65625 L 1032.757812 -0.542969 L -7.242188 -0.542969 Z M 70.675781 137.296875 L 70.195312 137.777344 L 64.675781 133.457031 L 69.664062 136.722656 L 66.789062 131.539062 Z M 70.675781 137.296875 "/>
</clipPath>
<clipPath id="clip-4">
<path clip-rule="nonzero" d="M 50.398438 137 L 70.398438 137 L 70.398438 195.199219 L 50.398438 195.199219 Z M 50.398438 137 "/>
</clipPath>
<clipPath id="clip-5">
<path clip-rule="evenodd" d="M -7.242188 274.65625 L 1032.757812 274.65625 L 1032.757812 -0.542969 L -7.242188 -0.542969 Z M 70.675781 194.898438 L 70.195312 195.378906 L 64.675781 191.054688 L 69.664062 194.320312 L 66.789062 189.136719 Z M 70.675781 194.898438 "/>
</clipPath>
<clipPath id="clip-6">
<path clip-rule="nonzero" d="M 50.398438 194.398438 L 70.398438 194.398438 L 70.398438 252.800781 L 50.398438 252.800781 Z M 50.398438 194.398438 "/>
</clipPath>
<clipPath id="clip-7">
<path clip-rule="evenodd" d="M -7.242188 274.65625 L 1032.757812 274.65625 L 1032.757812 -0.542969 L -7.242188 -0.542969 Z M 70.675781 252.496094 L 70.195312 252.976562 L 64.675781 248.65625 L 69.664062 251.921875 L 66.789062 246.738281 Z M 70.675781 252.496094 "/>
</clipPath>
<clipPath id="clip-8">
<path clip-rule="nonzero" d="M 991.199219 21.601562 L 1011.199219 21.601562 L 1011.199219 80 L 991.199219 80 Z M 991.199219 21.601562 "/>
</clipPath>
<clipPath id="clip-9">
<path clip-rule="evenodd" d="M -7.242188 274.65625 L 1032.757812 274.65625 L 1032.757812 -0.542969 L -7.242188 -0.542969 Z M 991.316406 22.097656 L 991.792969 21.617188 L 997.316406 25.9375 L 992.320312 22.675781 L 995.203125 27.855469 Z M 991.316406 22.097656 "/>
</clipPath>
<clipPath id="clip-10">
<path clip-rule="nonzero" d="M 530.398438 79.199219 L 1012.800781 79.199219 L 1012.800781 137.601562 L 530.398438 137.601562 Z M 530.398438 79.199219 "/>
</clipPath>
<clipPath id="clip-11">
<path clip-rule="evenodd" d="M -7.242188 274.65625 L 1032.757812 274.65625 L 1032.757812 -0.542969 L -7.242188 -0.542969 Z M 991.316406 79.695312 L 991.792969 79.21875 L 997.601562 83.054688 L 992.371094 80.226562 L 995.632812 85.167969 Z M 991.316406 79.695312 "/>
</clipPath>
<clipPath id="clip-12">
<path clip-rule="nonzero" d="M 185 194.398438 L 294 194.398438 L 294 252.800781 L 185 252.800781 Z M 185 194.398438 "/>
</clipPath>
<clipPath id="clip-13">
<path clip-rule="evenodd" d="M -7.242188 274.65625 L 1032.757812 274.65625 L 1032.757812 -0.542969 L -7.242188 -0.542969 Z M 271.316406 194.851562 L 271.84375 194.417969 L 277.21875 198.882812 L 272.320312 195.476562 L 275.058594 200.753906 Z M 271.316406 194.851562 "/>
</clipPath>
<clipPath id="clip-14">
<path clip-rule="nonzero" d="M 271.199219 137 L 558 137 L 558 195.199219 L 271.199219 195.199219 Z M 271.199219 137 "/>
</clipPath>
<clipPath id="clip-15">
<path clip-rule="evenodd" d="M -7.242188 274.65625 L 1032.757812 274.65625 L 1032.757812 -0.542969 L -7.242188 -0.542969 Z M 530.515625 137.296875 L 530.992188 136.820312 L 536.757812 140.707031 L 531.570312 137.824219 L 534.835938 142.820312 Z M 530.515625 137.296875 "/>
</clipPath>
</defs>
<path fill="none" stroke-width="4.5" stroke-linecap="butt" stroke-linejoin="miter" stroke="rgb(0%, 0%, 0%)" stroke-opacity="1" stroke-miterlimit="10" d="M 968.001389 2887.02846 L 12487.971921 2887.02846 L 12487.971921 3427.018687 L 968.001389 3427.018687 Z M 968.001389 2887.02846 " transform="matrix(0.08, 0, 0, -0.08, -7.2448, 274.657593)"/>
<path fill="none" stroke-width="4.5" stroke-linecap="butt" stroke-linejoin="miter" stroke="rgb(0%, 0%, 0%)" stroke-opacity="1" stroke-miterlimit="10" d="M 968.001389 2167.00894 L 12487.971921 2167.00894 L 12487.971921 2706.999166 L 968.001389 2706.999166 Z M 968.001389 2167.00894 " transform="matrix(0.08, 0, 0, -0.08, -7.2448, 274.657593)"/>
<path fill="none" stroke-width="4.5" stroke-linecap="butt" stroke-linejoin="miter" stroke="rgb(0%, 0%, 0%)" stroke-opacity="1" stroke-miterlimit="10" d="M 968.001389 1446.989419 L 6727.962241 1446.989419 L 6727.962241 1987.028474 L 968.001389 1987.028474 Z M 968.001389 1446.989419 " transform="matrix(0.08, 0, 0, -0.08, -7.2448, 274.657593)"/>
<path fill="none" stroke-width="4.5" stroke-linecap="butt" stroke-linejoin="miter" stroke="rgb(0%, 0%, 0%)" stroke-opacity="1" stroke-miterlimit="10" d="M 968.001389 6.999206 L 2407.991602 6.999206 L 2407.991602 546.989433 L 968.001389 546.989433 Z M 968.001389 6.999206 " transform="matrix(0.08, 0, 0, -0.08, -7.2448, 274.657593)"/>
<path fill="none" stroke-width="4.5" stroke-linecap="butt" stroke-linejoin="miter" stroke="rgb(0%, 0%, 0%)" stroke-opacity="1" stroke-miterlimit="10" d="M 6727.962241 2706.999166 L 6727.962241 2167.00894 " transform="matrix(0.08, 0, 0, -0.08, -7.2448, 274.657593)"/>
<path fill="none" stroke-width="4.5" stroke-linecap="butt" stroke-linejoin="miter" stroke="rgb(0%, 0%, 0%)" stroke-opacity="1" stroke-miterlimit="10" d="M 3847.981815 1987.028474 L 3847.981815 1446.989419 " transform="matrix(0.08, 0, 0, -0.08, -7.2448, 274.657593)"/>
<path fill="none" stroke-width="4.5" stroke-linecap="butt" stroke-linejoin="miter" stroke="rgb(0%, 0%, 0%)" stroke-opacity="1" stroke-miterlimit="10" d="M 1687.972082 546.989433 L 1687.972082 6.999206 " transform="matrix(0.08, 0, 0, -0.08, -7.2448, 274.657593)"/>
<g clip-path="url(#clip-0)">
<g clip-path="url(#clip-1)">
<path fill="none" stroke-width="4.5" stroke-linecap="butt" stroke-linejoin="bevel" stroke="rgb(0%, 0%, 0%)" stroke-opacity="1" stroke-miterlimit="10" d="M 968.001389 3156.99916 L 966.829514 3155.778456 L 964.388108 3152.799941 L 959.602952 3147.965957 L 952.37639 3140.202285 L 942.806077 3129.411269 L 930.208421 3115.59291 L 916.390062 3099.381973 L 900.227953 3081.364395 L 883.431078 3062.22377 L 865.999438 3041.813614 L 848.616626 3020.817521 L 831.819751 3000.407365 L 815.608814 2979.997209 L 801.204517 2960.221819 L 787.386158 2941.618303 L 775.423267 2924.186663 L 765.218189 2907.389788 L 755.599049 2891.813617 L 747.786549 2876.823382 L 741.829518 2862.419086 L 736.360768 2848.600727 L 732.796315 2835.417133 L 729.817799 2822.184711 L 728.597096 2809.587055 L 727.96233 2796.989399 L 728.597096 2784.391743 L 729.817799 2771.794087 L 732.796315 2758.610494 L 736.360768 2745.4269 L 741.829518 2731.608541 L 747.786549 2717.204244 L 755.599049 2702.21401 L 765.218189 2686.637838 L 775.423267 2669.792136 L 787.386158 2652.409323 L 801.204517 2633.805808 L 815.608814 2613.981589 L 831.819751 2593.620262 L 848.616626 2573.161278 L 865.999438 2552.214012 L 883.431078 2531.803856 L 900.227953 2512.614403 L 916.390062 2494.596826 L 930.208421 2478.434716 L 942.806077 2464.567529 L 952.37639 2453.825342 L 968.001389 2437.028467 " transform="matrix(0.08, 0, 0, -0.08, -7.2448, 274.657593)"/>
</g>
</g>
<path fill="none" stroke-width="4.5" stroke-linecap="butt" stroke-linejoin="miter" stroke="rgb(0%, 0%, 0%)" stroke-opacity="1" stroke-miterlimit="10" d="M 925.423265 2509.001122 L 961.360764 2444.206201 L 899.00725 2485.026513 " transform="matrix(0.08, 0, 0, -0.08, -7.2448, 274.657593)"/>
<g clip-path="url(#clip-2)">
<g clip-path="url(#clip-3)">
<path fill="none" stroke-width="4.5" stroke-linecap="butt" stroke-linejoin="bevel" stroke="rgb(0%, 0%, 0%)" stroke-opacity="1" stroke-miterlimit="10" d="M 968.001389 2437.028467 L 966.829514 2435.807764 L 964.388108 2432.78042 L 959.602952 2427.995264 L 952.37639 2420.231592 L 942.806077 2409.391749 L 930.208421 2395.622218 L 916.390062 2379.41128 L 900.227953 2361.393703 L 883.431078 2342.20425 L 865.999438 2321.794094 L 848.616626 2300.798 L 831.819751 2280.387844 L 815.608814 2260.026517 L 801.204517 2240.202298 L 787.386158 2221.598783 L 775.423267 2204.215971 L 765.218189 2187.419096 L 755.599049 2171.794096 L 747.786549 2156.803862 L 741.829518 2142.399565 L 736.360768 2128.630034 L 732.796315 2115.397613 L 729.817799 2102.214019 L 728.597096 2089.567535 L 727.96233 2077.018707 L 728.597096 2064.372223 L 729.817799 2051.823395 L 732.796315 2038.590973 L 736.360768 2025.407379 L 741.829518 2011.637848 L 747.786549 1997.184724 L 755.599049 1982.19449 L 765.218189 1966.618318 L 775.423267 1949.772615 L 787.386158 1932.389803 L 801.204517 1913.786287 L 815.608814 1894.010897 L 831.819751 1873.600741 L 848.616626 1853.190585 L 865.999438 1832.194492 L 883.431078 1811.833164 L 900.227953 1792.594883 L 916.390062 1774.577305 L 930.208421 1758.415196 L 942.806077 1744.596837 L 952.37639 1733.805821 L 968.001389 1717.008947 " transform="matrix(0.08, 0, 0, -0.08, -7.2448, 274.657593)"/>
</g>
</g>
<path fill="none" stroke-width="4.5" stroke-linecap="butt" stroke-linejoin="miter" stroke="rgb(0%, 0%, 0%)" stroke-opacity="1" stroke-miterlimit="10" d="M 925.423265 1788.981602 L 961.360764 1724.186681 L 899.00725 1765.006993 " transform="matrix(0.08, 0, 0, -0.08, -7.2448, 274.657593)"/>
<g clip-path="url(#clip-4)">
<g clip-path="url(#clip-5)">
<path fill="none" stroke-width="4.5" stroke-linecap="butt" stroke-linejoin="bevel" stroke="rgb(0%, 0%, 0%)" stroke-opacity="1" stroke-miterlimit="10" d="M 968.001389 1717.008947 L 966.829514 1715.788243 L 964.388108 1712.809728 L 959.602952 1707.975744 L 952.37639 1700.212072 L 942.806077 1689.372228 L 930.208421 1675.602697 L 916.390062 1659.39176 L 900.227953 1641.374182 L 883.431078 1622.184729 L 865.999438 1601.823401 L 848.616626 1580.77848 L 831.819751 1560.417152 L 815.608814 1540.006996 L 801.204517 1520.231606 L 787.386158 1501.62809 L 775.423267 1484.19645 L 765.218189 1467.399575 L 755.599049 1451.823404 L 747.786549 1436.83317 L 741.829518 1422.380045 L 736.360768 1408.610514 L 732.796315 1395.42692 L 729.817799 1382.194498 L 728.597096 1369.596842 L 727.96233 1356.999186 L 728.597096 1344.40153 L 729.817799 1331.803874 L 732.796315 1318.620281 L 736.360768 1305.387859 L 741.829518 1291.618328 L 747.786549 1277.214031 L 755.599049 1262.223797 L 765.218189 1246.598797 L 775.423267 1229.801923 L 787.386158 1212.41911 L 801.204517 1193.815595 L 815.608814 1173.991377 L 831.819751 1153.630049 L 848.616626 1133.171065 L 865.999438 1112.223799 L 883.431078 1091.813643 L 900.227953 1072.575362 L 916.390062 1054.606613 L 930.208421 1038.395675 L 942.806077 1024.577316 L 952.37639 1013.786301 L 968.001389 996.989426 " transform="matrix(0.08, 0, 0, -0.08, -7.2448, 274.657593)"/>
</g>
</g>
<path fill="none" stroke-width="4.5" stroke-linecap="butt" stroke-linejoin="miter" stroke="rgb(0%, 0%, 0%)" stroke-opacity="1" stroke-miterlimit="10" d="M 925.423265 1069.010909 L 961.360764 1004.215988 L 899.00725 1045.0363 " transform="matrix(0.08, 0, 0, -0.08, -7.2448, 274.657593)"/>
<g clip-path="url(#clip-6)">
<g clip-path="url(#clip-7)">
<path fill="none" stroke-width="4.5" stroke-linecap="butt" stroke-linejoin="bevel" stroke="rgb(0%, 0%, 0%)" stroke-opacity="1" stroke-miterlimit="10" d="M 968.001389 996.989426 L 966.829514 995.817551 L 964.388108 992.790207 L 959.602952 988.005051 L 952.37639 980.192551 L 942.806077 969.401536 L 930.208421 955.583177 L 916.390062 939.372239 L 900.227953 921.40349 L 883.431078 902.214037 L 865.999438 881.803881 L 848.616626 860.807787 L 831.819751 840.397632 L 815.608814 820.036304 L 801.204517 800.212085 L 787.386158 781.60857 L 775.423267 764.17693 L 765.218189 747.380055 L 755.599049 731.803883 L 747.786549 716.813649 L 741.829518 702.409352 L 736.360768 688.590993 L 732.796315 675.4074 L 729.817799 662.223806 L 728.597096 649.577322 L 727.96233 637.028494 L 728.597096 624.38201 L 729.817799 611.833182 L 732.796315 598.60076 L 736.360768 585.417167 L 741.829518 571.598807 L 747.786549 557.194511 L 755.599049 542.204277 L 765.218189 526.628105 L 775.423267 509.782402 L 787.386158 492.39959 L 801.204517 473.796074 L 815.608814 454.020684 L 831.819751 433.610528 L 848.616626 413.200372 L 865.999438 392.204279 L 883.431078 371.794123 L 900.227953 352.60467 L 916.390062 334.587092 L 930.208421 318.424983 L 942.806077 304.606624 L 952.37639 293.815608 L 968.001389 277.018734 " transform="matrix(0.08, 0, 0, -0.08, -7.2448, 274.657593)"/>
</g>
</g>
<path fill="none" stroke-width="4.5" stroke-linecap="butt" stroke-linejoin="miter" stroke="rgb(0%, 0%, 0%)" stroke-opacity="1" stroke-miterlimit="10" d="M 925.423265 348.991389 L 961.360764 284.196468 L 899.00725 325.01678 " transform="matrix(0.08, 0, 0, -0.08, -7.2448, 274.657593)"/>
<g clip-path="url(#clip-8)">
<g clip-path="url(#clip-9)">
<path fill="none" stroke-width="4.5" stroke-linecap="butt" stroke-linejoin="bevel" stroke="rgb(0%, 0%, 0%)" stroke-opacity="1" stroke-miterlimit="10" d="M 12487.971921 2437.028467 L 12489.192624 2438.200342 L 12491.63403 2441.178858 L 12496.419186 2446.012842 L 12503.596921 2453.825342 L 12513.216061 2464.567529 L 12525.813717 2478.434716 L 12539.583248 2494.596826 L 12555.794185 2512.614403 L 12572.59106 2531.803856 L 12590.022701 2552.214012 L 12607.405513 2573.161278 L 12624.202388 2593.620262 L 12640.413325 2613.981589 L 12654.817621 2633.805808 L 12668.587153 2652.409323 L 12680.598871 2669.792136 L 12690.803949 2686.637838 L 12700.42309 2702.21401 L 12708.235589 2717.204244 L 12714.192621 2731.608541 L 12719.563714 2745.4269 L 12723.225824 2758.610494 L 12726.204339 2771.794087 L 12727.376214 2784.391743 L 12727.962152 2796.989399 L 12727.376214 2809.587055 L 12726.204339 2822.184711 L 12723.225824 2835.417133 L 12719.563714 2848.600727 L 12714.192621 2862.419086 L 12708.235589 2876.823382 L 12700.42309 2891.813617 L 12690.803949 2907.389788 L 12680.598871 2924.186663 L 12668.587153 2941.618303 L 12654.817621 2960.221819 L 12640.413325 2979.997209 L 12624.202388 3000.407365 L 12607.405513 3020.817521 L 12590.022701 3041.813614 L 12572.59106 3062.22377 L 12555.794185 3081.364395 L 12539.583248 3099.381973 L 12525.813717 3115.59291 L 12513.216061 3129.411269 L 12503.596921 3140.202285 L 12487.971921 3156.99916 " transform="matrix(0.08, 0, 0, -0.08, -7.2448, 274.657593)"/>
</g>
</g>
<path fill="none" stroke-width="4.5" stroke-linecap="butt" stroke-linejoin="miter" stroke="rgb(0%, 0%, 0%)" stroke-opacity="1" stroke-miterlimit="10" d="M 12530.598873 3085.026504 L 12494.563718 3149.772597 L 12557.014889 3109.001113 " transform="matrix(0.08, 0, 0, -0.08, -7.2448, 274.657593)"/>
<g clip-path="url(#clip-10)">
<g clip-path="url(#clip-11)">
<path fill="none" stroke-width="4.5" stroke-linecap="butt" stroke-linejoin="bevel" stroke="rgb(0%, 0%, 0%)" stroke-opacity="1" stroke-miterlimit="10" d="M 6727.962241 1717.008947 L 6756.184897 1717.008947 L 6766.438803 1717.594884 L 6809.602865 1717.594884 L 6828.792318 1718.180822 L 6874.397786 1718.180822 L 6901.399738 1718.815587 L 6931.429035 1718.815587 L 6963.802081 1719.401525 L 6999.837237 1719.401525 L 7038.216143 1720.03629 L 7079.573564 1720.622228 L 7124.007157 1721.208165 L 7172.005203 1721.208165 L 7222.395827 1721.794103 L 7276.399733 1722.38004 L 7332.796216 1722.965978 L 7392.220044 1723.600743 L 7454.573558 1724.186681 L 7520.003245 1725.407384 L 7587.776681 1725.993321 L 7657.991524 1726.628087 L 7731.184882 1727.799962 L 7806.819647 1728.434728 L 7884.212224 1729.020665 L 7964.583316 1730.19254 L 8046.175112 1731.364415 L 8130.208314 1731.999181 L 8215.999328 1733.171056 L 8303.596983 1734.391759 L 8392.415341 1735.612462 L 8482.991512 1736.833165 L 8574.202448 1737.419103 L 8666.634087 1738.590978 L 8760.188773 1740.397618 L 8854.378225 1741.618321 L 8948.616505 1742.790196 L 9139.387986 1745.231602 L 9234.798141 1746.989415 L 9330.208296 1748.16129 L 9425.618451 1749.381993 L 9520.979778 1751.188634 L 9615.803995 1752.409337 L 9709.993447 1754.215977 L 9802.962195 1755.387852 L 9895.979772 1757.194493 L 9987.776646 1759.001133 L 10078.401644 1760.221837 L 10168.391877 1762.028477 L 10257.210235 1763.78629 L 10344.173125 1765.59293 L 10430.598905 1767.399571 L 10514.583278 1769.206211 L 10597.981715 1771.012852 L 10679.57351 1772.770665 L 10759.407493 1774.577305 L 10837.971945 1776.383946 L 10914.827413 1778.825352 L 10989.192646 1780.583164 L 11062.386005 1782.389805 L 11133.82155 1784.782383 L 11203.401627 1786.637852 L 11271.175064 1788.981602 L 11337.190688 1791.37418 L 11400.813734 1793.18082 L 11463.216077 1795.622227 L 11523.225841 1797.965977 L 11581.428966 1800.407383 L 11637.776621 1802.799961 L 11692.415292 1805.192539 L 11745.198494 1808.171055 L 11796.175056 1810.612461 L 11845.393805 1813.590976 L 11892.805914 1815.983554 L 11938.411382 1819.010898 L 11982.796147 1821.989414 L 12024.837162 1825.016757 L 12065.608646 1827.995273 L 12104.573489 1830.973789 L 12141.829348 1834.58707 L 12177.766847 1837.614414 L 12212.5813 1841.178867 L 12245.589112 1844.792148 L 12277.376221 1848.405429 L 12307.991455 1852.01871 L 12365.608641 1859.782382 L 12418.391844 1867.594882 L 12467.024656 1876.628085 L 12511.40942 1885.61246 L 12551.009029 1895.817538 L 12586.409419 1905.973788 L 12617.610591 1916.813631 L 12645.198481 1928.82535 L 12669.17309 1941.374178 L 12689.583246 1954.606599 L 12706.428949 1968.424958 L 12719.563714 1982.780427 L 12730.403558 1998.405427 L 12738.216058 2013.981598 L 12743.001214 2030.778473 L 12745.393792 2047.575348 L 12745.393792 2065.592926 L 12743.001214 2084.196441 L 12738.801995 2102.799956 L 12732.210198 2121.989409 L 12724.397699 2141.178862 L 12714.827386 2161.003081 L 12703.987543 2180.192533 L 12692.024652 2200.016752 L 12679.378168 2219.792142 L 12665.608637 2238.981595 L 12651.790278 2257.58511 L 12637.385981 2276.188626 L 12622.981684 2293.620266 L 12608.626216 2311.003078 L 12594.173091 2326.628078 L 12580.989498 2342.20425 L 12567.805904 2355.973781 L 12555.794185 2369.206202 L 12544.368404 2381.169093 L 12534.212155 2392.008937 L 12524.593014 2400.993311 L 12516.829342 2409.391749 L 12509.60278 2415.983546 L 12495.198483 2430.387842 L 12487.971921 2437.028467 " transform="matrix(0.08, 0, 0, -0.08, -7.2448, 274.657593)"/>
</g>
</g>
<path fill="none" stroke-width="4.5" stroke-linecap="butt" stroke-linejoin="miter" stroke="rgb(0%, 0%, 0%)" stroke-opacity="1" stroke-miterlimit="10" d="M 12535.969967 2368.620265 L 12495.198483 2430.387842 L 12560.579342 2395.03628 " transform="matrix(0.08, 0, 0, -0.08, -7.2448, 274.657593)"/>
<g clip-path="url(#clip-12)">
<g clip-path="url(#clip-13)">
<path fill="none" stroke-width="4.5" stroke-linecap="butt" stroke-linejoin="bevel" stroke="rgb(0%, 0%, 0%)" stroke-opacity="1" stroke-miterlimit="10" d="M 2407.991602 277.018734 L 2410.38418 277.018734 L 2413.411524 277.604671 L 2418.19668 278.190609 L 2425.423243 278.825374 L 2435.579493 279.997249 L 2447.591211 281.80389 L 2463.216211 283.61053 L 2481.184961 285.417171 L 2502.766992 288.395687 L 2527.376366 291.374202 L 2555.013084 294.401546 L 2586.165428 297.965999 L 2619.808005 302.214046 L 2655.794333 306.999202 L 2694.808004 311.833186 L 2735.579488 316.618342 L 2778.792378 321.989436 L 2823.225971 327.995295 L 2868.782611 333.415217 L 2915.608782 340.007014 L 2962.972063 346.012873 L 3010.384171 352.60467 L 3057.79628 358.610529 L 3105.208389 365.202326 L 3151.399794 371.794123 L 3197.005262 379.020685 L 3240.80409 385.612482 L 3284.01698 392.204279 L 3325.423229 398.796076 L 3365.022838 405.387872 L 3402.766978 412.028497 L 3438.802134 418.620294 L 3472.981821 425.212091 L 3504.817758 431.803888 L 3534.798226 438.395684 L 3562.386116 445.036309 L 3588.216194 451.628106 L 3612.190803 458.80584 L 3633.235725 465.397637 L 3652.962287 472.575371 L 3670.393927 479.801934 L 3686.604864 487.028496 L 3700.423224 494.20623 L 3712.972052 502.01873 L 3728.597051 513.395683 L 3740.60877 525.993339 L 3750.22791 538.590995 L 3756.184942 552.995292 L 3759.798223 567.985526 L 3760.38416 584.196463 L 3758.626348 601.628104 L 3753.792363 620.231619 L 3746.614629 640.00701 L 3737.581426 661.003103 L 3726.204473 682.585134 L 3712.972052 705.387868 L 3697.981817 728.825368 L 3681.819708 753.434742 L 3665.022834 777.409351 L 3647.005256 802.018726 L 3628.987678 825.993335 L 3610.384163 849.382006 L 3593.00135 872.18474 L 3575.618538 893.180834 L 3559.407601 913.005052 L 3545.003304 930.973802 L 3531.819711 946.598802 L 3520.393929 959.782395 L 3510.774789 971.208176 L 3502.962289 980.192551 L 3497.005258 986.833176 L 3487.972055 996.989426 " transform="matrix(0.08, 0, 0, -0.08, -7.2448, 274.657593)"/>
</g>
</g>
<path fill="none" stroke-width="4.5" stroke-linecap="butt" stroke-linejoin="miter" stroke="rgb(0%, 0%, 0%)" stroke-opacity="1" stroke-miterlimit="10" d="M 3528.792367 923.796068 L 3494.563852 989.762864 L 3555.79432 947.184739 " transform="matrix(0.08, 0, 0, -0.08, -7.2448, 274.657593)"/>
<g clip-path="url(#clip-14)">
<g clip-path="url(#clip-15)">
<path fill="none" stroke-width="4.5" stroke-linecap="butt" stroke-linejoin="bevel" stroke="rgb(0%, 0%, 0%)" stroke-opacity="1" stroke-miterlimit="10" d="M 3487.972055 996.989426 L 3505.989633 996.989426 L 3514.38807 997.575364 L 3537.776742 997.575364 L 3552.766976 998.161301 L 3570.784554 998.161301 L 3591.829475 998.796067 L 3615.218147 998.796067 L 3641.634162 999.382004 L 3671.61463 1000.01677 L 3703.987677 1000.602707 L 3740.022832 1001.188645 L 3778.987676 1001.82341 L 3820.979862 1002.409348 L 3865.999393 1003.630051 L 3913.997439 1004.215988 L 3965.022829 1004.801926 L 4018.391969 1005.973801 L 4074.837281 1007.194504 L 4134.21228 1008.415207 L 4195.393919 1009.587082 L 4259.016965 1010.807785 L 4324.397824 1012.028488 L 4392.220088 1013.200363 L 4461.1654 1014.372238 L 4532.015008 1016.178879 L 4603.987663 1017.399582 L 4677.181022 1019.206223 L 4751.009146 1020.426926 L 4901.009143 1023.991379 L 4976.59508 1025.798019 L 5051.595079 1027.60466 L 5127.181015 1029.411301 L 5202.181014 1031.169113 L 5276.595075 1032.975754 L 5351.009137 1035.41716 L 5424.202495 1037.2238 L 5496.17515 1039.56755 L 5567.024758 1041.374191 L 5637.190773 1043.815597 L 5705.598975 1046.208175 L 5772.786474 1048.600753 L 5838.802098 1050.407394 L 5902.962253 1052.799972 L 5964.827487 1055.778488 L 6025.423189 1058.171066 L 6084.212251 1060.612472 L 6141.194672 1063.00505 L 6196.41928 1065.983566 L 6249.837248 1069.010909 L 6300.81381 1071.403487 L 6350.032559 1074.382003 L 6397.39584 1077.409347 L 6442.41537 1080.9738 L 6485.579432 1084.001144 L 6526.985682 1087.614425 L 6566.634118 1090.59294 L 6603.792321 1094.206221 L 6639.827477 1097.770675 L 6673.421226 1101.383956 L 6705.208335 1105.583174 L 6735.774741 1109.782393 L 6763.997397 1113.981612 L 6790.999349 1118.180831 L 6816.829427 1122.380049 L 6840.218099 1127.214033 L 6862.972005 1131.99919 L 6903.206379 1141.61833 L 6938.606769 1152.409346 L 6969.173175 1163.786299 L 6995.003253 1175.798017 L 7016.634112 1189.567548 L 7033.430987 1204.020673 L 7045.979814 1219.010907 L 7055.013017 1235.807782 L 7060.384111 1253.82536 L 7061.604814 1272.380047 L 7059.798174 1292.204265 L 7054.378252 1313.200359 L 7046.61458 1335.417155 L 7036.409502 1358.171061 L 7023.225909 1381.608561 L 7008.235674 1405.58317 L 6990.804034 1430.192545 L 6972.786456 1455.387857 L 6952.962238 1479.997231 L 6932.60091 1504.606606 L 6911.604816 1528.630043 L 6890.608723 1552.018715 L 6870.198567 1574.772621 L 6850.423177 1595.817542 L 6831.184896 1615.592932 L 6813.216146 1634.196448 L 6782.014975 1665.397619 L 6768.782553 1677.995275 L 6757.991537 1688.786291 L 6749.007163 1697.184728 L 6741.829428 1704.411291 L 6736.409507 1709.196447 L 6727.962241 1717.008947 " transform="matrix(0.08, 0, 0, -0.08, -7.2448, 274.657593)"/>
</g>
</g>
<path fill="none" stroke-width="4.5" stroke-linecap="butt" stroke-linejoin="miter" stroke="rgb(0%, 0%, 0%)" stroke-opacity="1" stroke-miterlimit="10" d="M 6776.009115 1647.965979 L 6735.188803 1710.41715 L 6800.032552 1674.381994 " transform="matrix(0.08, 0, 0, -0.08, -7.2448, 274.657593)"/>
<path fill-rule="nonzero" fill="rgb(0%, 0%, 0%)" fill-opacity="1" d="M 183.425781 133.015625 L 180.566406 133.140625 L 180.566406 133.851562 C 181.589844 133.851562 181.703125 133.851562 181.703125 134.503906 L 181.703125 143.765625 L 180.566406 143.765625 L 180.566406 144.476562 C 180.953125 144.441406 182.113281 144.441406 182.566406 144.441406 C 183.015625 144.441406 184.191406 144.441406 184.566406 144.476562 L 184.566406 143.765625 L 183.425781 143.765625 Z M 183.425781 133.015625 "/>
<path fill-rule="nonzero" fill="rgb(0%, 0%, 0%)" fill-opacity="1" d="M 190.054688 136.554688 L 189.804688 136.554688 C 189.769531 136.742188 189.679688 137.378906 189.554688 137.566406 C 189.480469 137.667969 188.832031 137.667969 188.480469 137.667969 L 186.355469 137.667969 C 186.667969 137.40625 187.367188 136.667969 187.667969 136.390625 C 189.417969 134.78125 190.054688 134.191406 190.054688 133.054688 C 190.054688 131.730469 189.003906 130.855469 187.679688 130.855469 C 186.34375 130.855469 185.566406 131.980469 185.566406 132.96875 C 185.566406 133.554688 186.066406 133.554688 186.105469 133.554688 C 186.34375 133.554688 186.644531 133.378906 186.644531 133.015625 C 186.644531 132.691406 186.429688 132.480469 186.105469 132.480469 C 186.003906 132.480469 185.980469 132.480469 185.941406 132.492188 C 186.167969 131.703125 186.78125 131.179688 187.53125 131.179688 C 188.503906 131.179688 189.105469 131.992188 189.105469 133.054688 C 189.105469 134.03125 188.542969 134.878906 187.878906 135.617188 L 185.566406 138.203125 L 185.566406 138.480469 L 189.753906 138.480469 Z M 190.054688 136.554688 "/>
<path fill-rule="nonzero" fill="rgb(0%, 0%, 0%)" fill-opacity="1" d="M 298.628906 75.414062 L 295.769531 75.539062 L 295.769531 76.25 C 296.792969 76.25 296.90625 76.25 296.90625 76.902344 L 296.90625 86.164062 L 295.769531 86.164062 L 295.769531 86.875 C 296.15625 86.839844 297.316406 86.839844 297.769531 86.839844 C 298.21875 86.839844 299.394531 86.839844 299.769531 86.875 L 299.769531 86.164062 L 298.628906 86.164062 Z M 298.628906 75.414062 "/>
<path fill-rule="nonzero" fill="rgb(0%, 0%, 0%)" fill-opacity="1" d="M 303.507812 73.527344 C 303.507812 73.253906 303.507812 73.253906 303.285156 73.253906 C 303.007812 73.554688 302.433594 73.976562 301.257812 73.976562 L 301.257812 74.316406 C 301.519531 74.316406 302.097656 74.316406 302.722656 74.015625 L 302.722656 79.992188 C 302.722656 80.402344 302.683594 80.539062 301.683594 80.539062 L 301.320312 80.539062 L 301.320312 80.878906 C 301.632812 80.851562 302.746094 80.851562 303.121094 80.851562 C 303.496094 80.851562 304.609375 80.851562 304.910156 80.878906 L 304.910156 80.539062 L 304.558594 80.539062 C 303.546875 80.539062 303.507812 80.402344 303.507812 79.992188 Z M 303.507812 73.527344 "/>
<path fill-rule="nonzero" fill="rgb(0%, 0%, 0%)" fill-opacity="1" d="M 762.046875 81.8125 C 762.046875 80.25 761.371094 79.4375 759.546875 79.4375 C 757.882812 79.4375 757.070312 80.613281 756.847656 81.113281 L 756.820312 81.113281 L 756.820312 75.414062 L 753.972656 75.539062 L 753.972656 76.25 C 754.984375 76.25 755.109375 76.25 755.109375 76.902344 L 755.109375 86.164062 L 753.972656 86.164062 L 753.972656 86.875 C 754.347656 86.839844 755.535156 86.839844 755.996094 86.839844 C 756.457031 86.839844 757.671875 86.839844 758.046875 86.875 L 758.046875 86.164062 L 756.910156 86.164062 L 756.910156 82.652344 C 756.910156 80.863281 758.234375 79.988281 759.285156 79.988281 C 759.894531 79.988281 760.246094 80.375 760.246094 81.640625 L 760.246094 86.164062 L 759.109375 86.164062 L 759.109375 86.875 C 759.484375 86.839844 760.671875 86.839844 761.132812 86.839844 C 761.597656 86.839844 762.808594 86.839844 763.183594 86.875 L 763.183594 86.164062 L 762.046875 86.164062 Z M 762.046875 81.8125 "/>
<path fill-rule="nonzero" fill="rgb(0%, 0%, 0%)" fill-opacity="1" d="M 766.902344 73.527344 C 766.902344 73.253906 766.902344 73.253906 766.675781 73.253906 C 766.402344 73.554688 765.828125 73.976562 764.652344 73.976562 L 764.652344 74.316406 C 764.914062 74.316406 765.488281 74.316406 766.113281 74.015625 L 766.113281 79.992188 C 766.113281 80.402344 766.078125 80.539062 765.078125 80.539062 L 764.714844 80.539062 L 764.714844 80.878906 C 765.027344 80.851562 766.140625 80.851562 766.515625 80.851562 C 766.890625 80.851562 768.003906 80.851562 768.300781 80.878906 L 768.300781 80.539062 L 767.953125 80.539062 C 766.941406 80.539062 766.902344 80.402344 766.902344 79.992188 Z M 766.902344 73.527344 "/>
<path fill-rule="nonzero" fill="rgb(0%, 0%, 0%)" fill-opacity="1" d="M 529.035156 17.8125 L 526.171875 17.9375 L 526.171875 18.652344 C 527.199219 18.652344 527.3125 18.652344 527.3125 19.300781 L 527.3125 28.5625 L 526.171875 28.5625 L 526.171875 29.277344 C 526.5625 29.238281 527.722656 29.238281 528.171875 29.238281 C 528.625 29.238281 529.796875 29.238281 530.171875 29.277344 L 530.171875 28.5625 L 529.035156 28.5625 Z M 529.035156 17.8125 "/>
<path fill-rule="nonzero" fill="rgb(0%, 0%, 0%)" fill-opacity="1" d="M 535.75 19.601562 C 535.75 18.652344 535.703125 17.726562 535.289062 16.851562 C 534.8125 15.902344 533.988281 15.652344 533.425781 15.652344 C 532.765625 15.652344 531.9375 15.976562 531.527344 16.925781 C 531.203125 17.652344 531.089844 18.363281 531.089844 19.601562 C 531.089844 20.714844 531.164062 21.550781 531.578125 22.363281 C 532.027344 23.238281 532.8125 23.515625 533.414062 23.515625 C 534.414062 23.515625 534.988281 22.925781 535.3125 22.25 C 535.726562 21.390625 535.75 20.265625 535.75 19.601562 Z M 533.414062 23.289062 C 533.050781 23.289062 532.300781 23.078125 532.089844 21.828125 C 531.953125 21.140625 531.953125 20.265625 531.953125 19.464844 C 531.953125 18.527344 531.953125 17.675781 532.140625 17 C 532.339844 16.226562 532.925781 15.875 533.414062 15.875 C 533.851562 15.875 534.515625 16.140625 534.738281 17.125 C 534.875 17.777344 534.875 18.6875 534.875 19.464844 C 534.875 20.238281 534.875 21.101562 534.75 21.800781 C 534.539062 23.0625 533.8125 23.289062 533.414062 23.289062 Z M 533.414062 23.289062 "/>
<path fill-rule="nonzero" fill="rgb(0%, 0%, 0%)" fill-opacity="1" d="M 416.4375 139.414062 C 416.4375 137.851562 415.761719 137.039062 413.9375 137.039062 C 412.277344 137.039062 411.464844 138.214844 411.238281 138.714844 L 411.214844 138.714844 L 411.214844 133.015625 L 408.363281 133.140625 L 408.363281 133.851562 C 409.375 133.851562 409.5 133.851562 409.5 134.503906 L 409.5 143.765625 L 408.363281 143.765625 L 408.363281 144.476562 C 408.738281 144.441406 409.925781 144.441406 410.386719 144.441406 C 410.851562 144.441406 412.0625 144.441406 412.4375 144.476562 L 412.4375 143.765625 L 411.300781 143.765625 L 411.300781 140.253906 C 411.300781 138.464844 412.625 137.589844 413.675781 137.589844 C 414.289062 137.589844 414.636719 137.976562 414.636719 139.242188 L 414.636719 143.765625 L 413.5 143.765625 L 413.5 144.476562 C 413.875 144.441406 415.0625 144.441406 415.527344 144.441406 C 415.988281 144.441406 417.199219 144.441406 417.574219 144.476562 L 417.574219 143.765625 L 416.4375 143.765625 Z M 416.4375 139.414062 "/>
<path fill-rule="nonzero" fill="rgb(0%, 0%, 0%)" fill-opacity="1" d="M 423.042969 136.554688 L 422.792969 136.554688 C 422.757812 136.742188 422.667969 137.378906 422.542969 137.566406 C 422.46875 137.667969 421.820312 137.667969 421.46875 137.667969 L 419.34375 137.667969 C 419.65625 137.40625 420.355469 136.667969 420.65625 136.390625 C 422.40625 134.78125 423.042969 134.191406 423.042969 133.054688 C 423.042969 131.730469 421.996094 130.855469 420.667969 130.855469 C 419.332031 130.855469 418.558594 131.980469 418.558594 132.96875 C 418.558594 133.554688 419.058594 133.554688 419.09375 133.554688 C 419.332031 133.554688 419.632812 133.378906 419.632812 133.015625 C 419.632812 132.691406 419.417969 132.480469 419.09375 132.480469 C 418.996094 132.480469 418.96875 132.480469 418.933594 132.492188 C 419.15625 131.703125 419.769531 131.179688 420.519531 131.179688 C 421.496094 131.179688 422.09375 131.992188 422.09375 133.054688 C 422.09375 134.03125 421.53125 134.878906 420.871094 135.617188 L 418.558594 138.203125 L 418.558594 138.480469 L 422.746094 138.480469 Z M 423.042969 136.554688 "/>
<path fill-rule="nonzero" fill="rgb(0%, 0%, 0%)" fill-opacity="1" d="M 0.628906 161.992188 L 0.628906 162.417969 C 1.765625 162.417969 1.953125 162.417969 1.953125 163.167969 L 1.953125 172.105469 C 1.953125 172.855469 1.765625 172.855469 0.628906 172.855469 L 0.628906 173.277344 L 5.878906 173.277344 C 8.542969 173.277344 10.679688 170.828125 10.679688 167.730469 C 10.679688 164.605469 8.578125 161.992188 5.878906 161.992188 Z M 3.703125 172.855469 C 3.042969 172.855469 3.003906 172.765625 3.003906 172.203125 L 3.003906 163.066406 C 3.003906 162.503906 3.042969 162.417969 3.703125 162.417969 L 5.554688 162.417969 C 6.917969 162.417969 9.453125 163.230469 9.453125 167.730469 C 9.453125 170.054688 8.765625 171.003906 8.453125 171.441406 C 8.066406 171.953125 7.117188 172.855469 5.554688 172.855469 Z M 3.703125 172.855469 "/>
<path fill-rule="nonzero" fill="rgb(0%, 0%, 0%)" fill-opacity="1" d="M 25.277344 163.480469 C 25.429688 163.027344 25.679688 162.453125 26.628906 162.417969 L 26.628906 161.992188 C 26.355469 162.003906 25.777344 162.027344 25.480469 162.027344 C 25.066406 162.027344 24.339844 162.027344 23.941406 161.992188 L 23.941406 162.417969 C 24.679688 162.441406 24.992188 162.855469 24.992188 163.253906 C 24.992188 163.367188 24.980469 163.429688 24.917969 163.617188 L 22.355469 171.777344 L 19.652344 163.179688 C 19.605469 163.015625 19.589844 162.953125 19.589844 162.878906 C 19.589844 162.417969 20.316406 162.417969 20.628906 162.417969 L 20.628906 161.992188 C 20.152344 162.027344 19.328125 162.027344 18.816406 162.027344 C 18.402344 162.027344 17.652344 162.027344 17.277344 161.992188 L 17.277344 162.417969 C 18.042969 162.417969 18.242188 162.464844 18.402344 162.765625 C 18.464844 162.917969 18.730469 163.777344 18.730469 163.828125 C 18.730469 163.890625 18.703125 163.992188 18.679688 164.042969 L 16.253906 171.753906 L 13.566406 163.179688 C 13.480469 162.953125 13.480469 162.917969 13.480469 162.878906 C 13.480469 162.417969 14.203125 162.417969 14.542969 162.417969 L 14.542969 161.992188 C 14.054688 162.027344 13.230469 162.027344 12.714844 162.027344 C 12.292969 162.027344 11.566406 162.027344 11.167969 161.992188 L 11.167969 162.417969 C 12.152344 162.417969 12.230469 162.515625 12.390625 163.054688 L 15.617188 173.265625 C 15.691406 173.515625 15.691406 173.542969 15.839844 173.542969 C 15.980469 173.542969 16.027344 173.515625 16.089844 173.277344 L 18.902344 164.316406 L 21.703125 173.277344 C 21.777344 173.515625 21.828125 173.542969 21.953125 173.542969 C 22.105469 173.542969 22.105469 173.515625 22.191406 173.265625 Z M 25.277344 163.480469 "/>
<path fill-rule="nonzero" fill="rgb(0%, 0%, 0%)" fill-opacity="1" d="M 37.070312 162.042969 L 27.53125 162.042969 L 27.257812 165.691406 L 27.558594 165.691406 C 27.769531 162.953125 28.007812 162.464844 30.542969 162.464844 C 30.84375 162.464844 31.320312 162.464844 31.457031 162.492188 C 31.769531 162.542969 31.769531 162.742188 31.769531 163.117188 L 31.769531 172.066406 C 31.769531 172.667969 31.71875 172.855469 30.34375 172.855469 L 29.882812 172.855469 L 29.882812 173.277344 C 30.683594 173.265625 31.507812 173.242188 32.320312 173.242188 C 33.121094 173.242188 33.945312 173.265625 34.746094 173.277344 L 34.746094 172.855469 L 34.28125 172.855469 C 32.90625 172.855469 32.855469 172.667969 32.855469 172.066406 L 32.855469 163.117188 C 32.855469 162.753906 32.855469 162.554688 33.15625 162.492188 C 33.292969 162.464844 33.769531 162.464844 34.070312 162.464844 C 36.59375 162.464844 36.84375 162.953125 37.058594 165.691406 L 37.355469 165.691406 Z M 37.070312 162.042969 "/>
<path fill-rule="nonzero" fill="rgb(0%, 0%, 0%)" fill-opacity="1" d="M 0.628906 100.789062 L 0.628906 101.214844 C 1.765625 101.214844 1.953125 101.214844 1.953125 101.964844 L 1.953125 110.902344 C 1.953125 111.652344 1.765625 111.652344 0.628906 111.652344 L 0.628906 112.078125 L 5.878906 112.078125 C 8.542969 112.078125 10.679688 109.628906 10.679688 106.527344 C 10.679688 103.402344 8.578125 100.789062 5.878906 100.789062 Z M 3.703125 111.652344 C 3.042969 111.652344 3.003906 111.566406 3.003906 111.003906 L 3.003906 101.863281 C 3.003906 101.300781 3.042969 101.214844 3.703125 101.214844 L 5.554688 101.214844 C 6.917969 101.214844 9.453125 102.027344 9.453125 106.527344 C 9.453125 108.851562 8.765625 109.800781 8.453125 110.238281 C 8.066406 110.753906 7.117188 111.652344 5.554688 111.652344 Z M 3.703125 111.652344 "/>
<path fill-rule="nonzero" fill="rgb(0%, 0%, 0%)" fill-opacity="1" d="M 25.277344 102.277344 C 25.429688 101.828125 25.679688 101.253906 26.628906 101.214844 L 26.628906 100.789062 C 26.355469 100.800781 25.777344 100.828125 25.480469 100.828125 C 25.066406 100.828125 24.339844 100.828125 23.941406 100.789062 L 23.941406 101.214844 C 24.679688 101.238281 24.992188 101.652344 24.992188 102.050781 C 24.992188 102.164062 24.980469 102.226562 24.917969 102.414062 L 22.355469 110.578125 L 19.652344 101.976562 C 19.605469 101.816406 19.589844 101.753906 19.589844 101.675781 C 19.589844 101.214844 20.316406 101.214844 20.628906 101.214844 L 20.628906 100.789062 C 20.152344 100.828125 19.328125 100.828125 18.816406 100.828125 C 18.402344 100.828125 17.652344 100.828125 17.277344 100.789062 L 17.277344 101.214844 C 18.042969 101.214844 18.242188 101.265625 18.402344 101.566406 C 18.464844 101.714844 18.730469 102.578125 18.730469 102.628906 C 18.730469 102.691406 18.703125 102.789062 18.679688 102.839844 L 16.253906 110.550781 L 13.566406 101.976562 C 13.480469 101.753906 13.480469 101.714844 13.480469 101.675781 C 13.480469 101.214844 14.203125 101.214844 14.542969 101.214844 L 14.542969 100.789062 C 14.054688 100.828125 13.230469 100.828125 12.714844 100.828125 C 12.292969 100.828125 11.566406 100.828125 11.167969 100.789062 L 11.167969 101.214844 C 12.152344 101.214844 12.230469 101.316406 12.390625 101.851562 L 15.617188 112.066406 C 15.691406 112.316406 15.691406 112.339844 15.839844 112.339844 C 15.980469 112.339844 16.027344 112.316406 16.089844 112.078125 L 18.902344 103.113281 L 21.703125 112.078125 C 21.777344 112.316406 21.828125 112.339844 21.953125 112.339844 C 22.105469 112.339844 22.105469 112.316406 22.191406 112.066406 Z M 25.277344 102.277344 "/>
<path fill-rule="nonzero" fill="rgb(0%, 0%, 0%)" fill-opacity="1" d="M 37.070312 100.839844 L 27.53125 100.839844 L 27.257812 104.488281 L 27.558594 104.488281 C 27.769531 101.753906 28.007812 101.265625 30.542969 101.265625 C 30.84375 101.265625 31.320312 101.265625 31.457031 101.289062 C 31.769531 101.339844 31.769531 101.539062 31.769531 101.914062 L 31.769531 110.863281 C 31.769531 111.464844 31.71875 111.652344 30.34375 111.652344 L 29.882812 111.652344 L 29.882812 112.078125 C 30.683594 112.066406 31.507812 112.039062 32.320312 112.039062 C 33.121094 112.039062 33.945312 112.066406 34.746094 112.078125 L 34.746094 111.652344 L 34.28125 111.652344 C 32.90625 111.652344 32.855469 111.464844 32.855469 110.863281 L 32.855469 101.914062 C 32.855469 101.550781 32.855469 101.351562 33.15625 101.289062 C 33.292969 101.265625 33.769531 101.265625 34.070312 101.265625 C 36.59375 101.265625 36.84375 101.753906 37.058594 104.488281 L 37.355469 104.488281 Z M 37.070312 100.839844 "/>
<path fill-rule="nonzero" fill="rgb(0%, 0%, 0%)" fill-opacity="1" d="M 0.628906 46.789062 L 0.628906 47.214844 C 1.765625 47.214844 1.953125 47.214844 1.953125 47.964844 L 1.953125 56.902344 C 1.953125 57.652344 1.765625 57.652344 0.628906 57.652344 L 0.628906 58.078125 L 5.878906 58.078125 C 8.542969 58.078125 10.679688 55.625 10.679688 52.527344 C 10.679688 49.402344 8.578125 46.789062 5.878906 46.789062 Z M 3.703125 57.652344 C 3.042969 57.652344 3.003906 57.5625 3.003906 57 L 3.003906 47.863281 C 3.003906 47.300781 3.042969 47.214844 3.703125 47.214844 L 5.554688 47.214844 C 6.917969 47.214844 9.453125 48.027344 9.453125 52.527344 C 9.453125 54.851562 8.765625 55.800781 8.453125 56.238281 C 8.066406 56.75 7.117188 57.652344 5.554688 57.652344 Z M 3.703125 57.652344 "/>
<path fill-rule="nonzero" fill="rgb(0%, 0%, 0%)" fill-opacity="1" d="M 25.277344 48.277344 C 25.429688 47.828125 25.679688 47.25 26.628906 47.214844 L 26.628906 46.789062 C 26.355469 46.800781 25.777344 46.828125 25.480469 46.828125 C 25.066406 46.828125 24.339844 46.828125 23.941406 46.789062 L 23.941406 47.214844 C 24.679688 47.238281 24.992188 47.652344 24.992188 48.050781 C 24.992188 48.164062 24.980469 48.226562 24.917969 48.414062 L 22.355469 56.578125 L 19.652344 47.976562 C 19.605469 47.8125 19.589844 47.75 19.589844 47.675781 C 19.589844 47.214844 20.316406 47.214844 20.628906 47.214844 L 20.628906 46.789062 C 20.152344 46.828125 19.328125 46.828125 18.816406 46.828125 C 18.402344 46.828125 17.652344 46.828125 17.277344 46.789062 L 17.277344 47.214844 C 18.042969 47.214844 18.242188 47.265625 18.402344 47.5625 C 18.464844 47.714844 18.730469 48.578125 18.730469 48.625 C 18.730469 48.6875 18.703125 48.789062 18.679688 48.839844 L 16.253906 56.550781 L 13.566406 47.976562 C 13.480469 47.75 13.480469 47.714844 13.480469 47.675781 C 13.480469 47.214844 14.203125 47.214844 14.542969 47.214844 L 14.542969 46.789062 C 14.054688 46.828125 13.230469 46.828125 12.714844 46.828125 C 12.292969 46.828125 11.566406 46.828125 11.167969 46.789062 L 11.167969 47.214844 C 12.152344 47.214844 12.230469 47.3125 12.390625 47.851562 L 15.617188 58.0625 C 15.691406 58.3125 15.691406 58.339844 15.839844 58.339844 C 15.980469 58.339844 16.027344 58.3125 16.089844 58.078125 L 18.902344 49.113281 L 21.703125 58.078125 C 21.777344 58.3125 21.828125 58.339844 21.953125 58.339844 C 22.105469 58.339844 22.105469 58.3125 22.191406 58.0625 Z M 25.277344 48.277344 "/>
<path fill-rule="nonzero" fill="rgb(0%, 0%, 0%)" fill-opacity="1" d="M 37.070312 46.839844 L 27.53125 46.839844 L 27.257812 50.488281 L 27.558594 50.488281 C 27.769531 47.75 28.007812 47.265625 30.542969 47.265625 C 30.84375 47.265625 31.320312 47.265625 31.457031 47.289062 C 31.769531 47.339844 31.769531 47.539062 31.769531 47.914062 L 31.769531 56.863281 C 31.769531 57.464844 31.71875 57.652344 30.34375 57.652344 L 29.882812 57.652344 L 29.882812 58.078125 C 30.683594 58.0625 31.507812 58.039062 32.320312 58.039062 C 33.121094 58.039062 33.945312 58.0625 34.746094 58.078125 L 34.746094 57.652344 L 34.28125 57.652344 C 32.90625 57.652344 32.855469 57.464844 32.855469 56.863281 L 32.855469 47.914062 C 32.855469 47.550781 32.855469 47.351562 33.15625 47.289062 C 33.292969 47.265625 33.769531 47.265625 34.070312 47.265625 C 36.59375 47.265625 36.84375 47.75 37.058594 50.488281 L 37.355469 50.488281 Z M 37.070312 46.839844 "/>
<path fill-rule="nonzero" fill="rgb(0%, 0%, 0%)" fill-opacity="1" d="M 186.105469 195.027344 C 186.105469 194.617188 185.78125 194.355469 185.429688 194.355469 C 185.105469 194.355469 184.757812 194.617188 184.757812 195.027344 C 184.757812 195.441406 185.082031 195.703125 185.429688 195.703125 C 185.769531 195.703125 186.105469 195.441406 186.105469 195.027344 Z M 186.105469 195.027344 "/>
<path fill-rule="nonzero" fill="rgb(0%, 0%, 0%)" fill-opacity="1" d="M 186.105469 198.21875 C 186.105469 197.804688 185.78125 197.542969 185.429688 197.542969 C 185.105469 197.542969 184.757812 197.804688 184.757812 198.21875 C 184.757812 198.628906 185.082031 198.890625 185.429688 198.890625 C 185.769531 198.890625 186.105469 198.628906 186.105469 198.21875 Z M 186.105469 198.21875 "/>
<path fill-rule="nonzero" fill="rgb(0%, 0%, 0%)" fill-opacity="1" d="M 186.105469 201.40625 C 186.105469 200.992188 185.78125 200.730469 185.429688 200.730469 C 185.105469 200.730469 184.757812 200.992188 184.757812 201.40625 C 184.757812 201.816406 185.082031 202.078125 185.429688 202.078125 C 185.769531 202.078125 186.105469 201.816406 186.105469 201.40625 Z M 186.105469 201.40625 "/>
<path fill-rule="nonzero" fill="rgb(0%, 0%, 0%)" fill-opacity="1" d="M 4.230469 219.59375 L 4.230469 220.019531 C 5.367188 220.019531 5.554688 220.019531 5.554688 220.769531 L 5.554688 229.707031 C 5.554688 230.457031 5.367188 230.457031 4.230469 230.457031 L 4.230469 230.878906 L 9.480469 230.878906 C 12.140625 230.878906 14.277344 228.429688 14.277344 225.332031 C 14.277344 222.207031 12.179688 219.59375 9.480469 219.59375 Z M 7.304688 230.457031 C 6.640625 230.457031 6.605469 230.367188 6.605469 229.804688 L 6.605469 220.667969 C 6.605469 220.105469 6.640625 220.019531 7.304688 220.019531 L 9.152344 220.019531 C 10.515625 220.019531 13.054688 220.832031 13.054688 225.332031 C 13.054688 227.65625 12.367188 228.605469 12.054688 229.042969 C 11.667969 229.554688 10.714844 230.457031 9.152344 230.457031 Z M 7.304688 230.457031 "/>
<path fill-rule="nonzero" fill="rgb(0%, 0%, 0%)" fill-opacity="1" d="M 28.878906 221.082031 C 29.027344 220.628906 29.277344 220.054688 30.230469 220.019531 L 30.230469 219.59375 C 29.953125 219.605469 29.378906 219.628906 29.078125 219.628906 C 28.667969 219.628906 27.941406 219.628906 27.542969 219.59375 L 27.542969 220.019531 C 28.277344 220.042969 28.589844 220.457031 28.589844 220.855469 C 28.589844 220.96875 28.578125 221.03125 28.515625 221.21875 L 25.953125 229.378906 L 23.253906 220.78125 C 23.203125 220.617188 23.191406 220.554688 23.191406 220.480469 C 23.191406 220.019531 23.917969 220.019531 24.230469 220.019531 L 24.230469 219.59375 C 23.753906 219.628906 22.929688 219.628906 22.417969 219.628906 C 22.003906 219.628906 21.253906 219.628906 20.878906 219.59375 L 20.878906 220.019531 C 21.640625 220.019531 21.839844 220.066406 22.003906 220.367188 C 22.066406 220.519531 22.328125 221.378906 22.328125 221.429688 C 22.328125 221.492188 22.304688 221.59375 22.277344 221.644531 L 19.855469 229.355469 L 17.167969 220.78125 C 17.078125 220.554688 17.078125 220.519531 17.078125 220.480469 C 17.078125 220.019531 17.804688 220.019531 18.140625 220.019531 L 18.140625 219.59375 C 17.652344 219.628906 16.828125 219.628906 16.316406 219.628906 C 15.890625 219.628906 15.167969 219.628906 14.765625 219.59375 L 14.765625 220.019531 C 15.753906 220.019531 15.828125 220.117188 15.992188 220.65625 L 19.214844 230.867188 C 19.292969 231.117188 19.292969 231.144531 19.441406 231.144531 C 19.578125 231.144531 19.628906 231.117188 19.691406 230.878906 L 22.503906 221.917969 L 25.304688 230.878906 C 25.378906 231.117188 25.429688 231.144531 25.554688 231.144531 C 25.703125 231.144531 25.703125 231.117188 25.792969 230.867188 Z M 28.878906 221.082031 "/>
<path fill-rule="nonzero" fill="rgb(0%, 0%, 0%)" fill-opacity="1" d="M 40.667969 219.644531 L 31.132812 219.644531 L 30.855469 223.292969 L 31.15625 223.292969 C 31.371094 220.554688 31.605469 220.066406 34.144531 220.066406 C 34.445312 220.066406 34.917969 220.066406 35.058594 220.09375 C 35.371094 220.144531 35.371094 220.34375 35.371094 220.71875 L 35.371094 229.667969 C 35.371094 230.269531 35.320312 230.457031 33.945312 230.457031 L 33.480469 230.457031 L 33.480469 230.878906 C 34.28125 230.867188 35.105469 230.84375 35.917969 230.84375 C 36.71875 230.84375 37.542969 230.867188 38.34375 230.878906 L 38.34375 230.457031 L 37.882812 230.457031 C 36.507812 230.457031 36.457031 230.269531 36.457031 229.667969 L 36.457031 220.71875 C 36.457031 220.355469 36.457031 220.15625 36.757812 220.09375 C 36.894531 220.066406 37.371094 220.066406 37.667969 220.066406 C 40.195312 220.066406 40.445312 220.554688 40.65625 223.292969 L 40.957031 223.292969 Z M 40.667969 219.644531 "/>
<path fill-rule="nonzero" fill="rgb(0%, 0%, 0%)" fill-opacity="1" d="M 24.101562 195.027344 C 24.101562 194.617188 23.777344 194.355469 23.425781 194.355469 C 23.101562 194.355469 22.753906 194.617188 22.753906 195.027344 C 22.753906 195.441406 23.078125 195.703125 23.425781 195.703125 C 23.765625 195.703125 24.101562 195.441406 24.101562 195.027344 Z M 24.101562 195.027344 "/>
<path fill-rule="nonzero" fill="rgb(0%, 0%, 0%)" fill-opacity="1" d="M 24.101562 198.21875 C 24.101562 197.804688 23.777344 197.542969 23.425781 197.542969 C 23.101562 197.542969 22.753906 197.804688 22.753906 198.21875 C 22.753906 198.628906 23.078125 198.890625 23.425781 198.890625 C 23.765625 198.890625 24.101562 198.628906 24.101562 198.21875 Z M 24.101562 198.21875 "/>
<path fill-rule="nonzero" fill="rgb(0%, 0%, 0%)" fill-opacity="1" d="M 24.101562 201.40625 C 24.101562 200.992188 23.777344 200.730469 23.425781 200.730469 C 23.101562 200.730469 22.753906 200.992188 22.753906 201.40625 C 22.753906 201.816406 23.078125 202.078125 23.425781 202.078125 C 23.765625 202.078125 24.101562 201.816406 24.101562 201.40625 Z M 24.101562 201.40625 "/>
<path fill-rule="nonzero" fill="rgb(0%, 0%, 0%)" fill-opacity="1" d="M 1032.3125 46.789062 L 1032.3125 47.214844 C 1033.453125 47.214844 1033.640625 47.214844 1033.640625 47.964844 L 1033.640625 56.902344 C 1033.640625 57.652344 1033.453125 57.652344 1032.3125 57.652344 L 1032.3125 58.078125 L 1037.5625 58.078125 C 1040.226562 58.078125 1042.363281 55.625 1042.363281 52.527344 C 1042.363281 49.402344 1040.265625 46.789062 1037.5625 46.789062 Z M 1035.390625 57.652344 C 1034.726562 57.652344 1034.6875 57.5625 1034.6875 57 L 1034.6875 47.863281 C 1034.6875 47.300781 1034.726562 47.214844 1035.390625 47.214844 L 1037.238281 47.214844 C 1038.601562 47.214844 1041.140625 48.027344 1041.140625 52.527344 C 1041.140625 54.851562 1040.453125 55.800781 1040.140625 56.238281 C 1039.75 56.75 1038.800781 57.652344 1037.238281 57.652344 Z M 1035.390625 57.652344 "/>
<path fill-rule="nonzero" fill="rgb(0%, 0%, 0%)" fill-opacity="1" d="M 1056.964844 48.277344 C 1057.113281 47.828125 1057.363281 47.25 1058.316406 47.214844 L 1058.316406 46.789062 C 1058.039062 46.800781 1057.464844 46.828125 1057.164062 46.828125 C 1056.753906 46.828125 1056.027344 46.828125 1055.628906 46.789062 L 1055.628906 47.214844 C 1056.363281 47.238281 1056.675781 47.652344 1056.675781 48.050781 C 1056.675781 48.164062 1056.664062 48.226562 1056.601562 48.414062 L 1054.039062 56.578125 L 1051.339844 47.976562 C 1051.289062 47.8125 1051.277344 47.75 1051.277344 47.675781 C 1051.277344 47.214844 1052.003906 47.214844 1052.316406 47.214844 L 1052.316406 46.789062 C 1051.839844 46.828125 1051.015625 46.828125 1050.503906 46.828125 C 1050.089844 46.828125 1049.339844 46.828125 1048.964844 46.789062 L 1048.964844 47.214844 C 1049.726562 47.214844 1049.925781 47.265625 1050.089844 47.5625 C 1050.152344 47.714844 1050.414062 48.578125 1050.414062 48.625 C 1050.414062 48.6875 1050.390625 48.789062 1050.363281 48.839844 L 1047.941406 56.550781 L 1045.253906 47.976562 C 1045.164062 47.75 1045.164062 47.714844 1045.164062 47.675781 C 1045.164062 47.214844 1045.890625 47.214844 1046.226562 47.214844 L 1046.226562 46.789062 C 1045.738281 46.828125 1044.914062 46.828125 1044.402344 46.828125 C 1043.976562 46.828125 1043.253906 46.828125 1042.851562 46.789062 L 1042.851562 47.214844 C 1043.839844 47.214844 1043.914062 47.3125 1044.078125 47.851562 L 1047.300781 58.0625 C 1047.378906 58.3125 1047.378906 58.339844 1047.527344 58.339844 C 1047.664062 58.339844 1047.714844 58.3125 1047.777344 58.078125 L 1050.589844 49.113281 L 1053.390625 58.078125 C 1053.464844 58.3125 1053.515625 58.339844 1053.640625 58.339844 C 1053.789062 58.339844 1053.789062 58.3125 1053.878906 58.0625 Z M 1056.964844 48.277344 "/>
<path fill-rule="nonzero" fill="rgb(0%, 0%, 0%)" fill-opacity="1" d="M 1068.753906 46.839844 L 1059.21875 46.839844 L 1058.941406 50.488281 L 1059.242188 50.488281 C 1059.457031 47.75 1059.691406 47.265625 1062.230469 47.265625 C 1062.53125 47.265625 1063.003906 47.265625 1063.144531 47.289062 C 1063.457031 47.339844 1063.457031 47.539062 1063.457031 47.914062 L 1063.457031 56.863281 C 1063.457031 57.464844 1063.40625 57.652344 1062.03125 57.652344 L 1061.566406 57.652344 L 1061.566406 58.078125 C 1062.367188 58.0625 1063.191406 58.039062 1064.003906 58.039062 C 1064.804688 58.039062 1065.628906 58.0625 1066.429688 58.078125 L 1066.429688 57.652344 L 1065.96875 57.652344 C 1064.59375 57.652344 1064.542969 57.464844 1064.542969 56.863281 L 1064.542969 47.914062 C 1064.542969 47.550781 1064.542969 47.351562 1064.84375 47.289062 C 1064.980469 47.265625 1065.457031 47.265625 1065.753906 47.265625 C 1068.28125 47.265625 1068.53125 47.75 1068.742188 50.488281 L 1069.042969 50.488281 Z M 1068.753906 46.839844 "/>
<path fill-rule="nonzero" fill="rgb(0%, 0%, 0%)" fill-opacity="1" d="M 1077.074219 48.578125 C 1077.277344 48.578125 1077.476562 48.578125 1077.476562 48.351562 C 1077.476562 48.113281 1077.277344 48.113281 1077.074219 48.113281 L 1070.863281 48.113281 C 1070.675781 48.113281 1070.464844 48.113281 1070.464844 48.351562 C 1070.464844 48.578125 1070.675781 48.578125 1070.863281 48.578125 Z M 1077.074219 48.578125 "/>
<path fill-rule="nonzero" fill="rgb(0%, 0%, 0%)" fill-opacity="1" d="M 1081.738281 43.863281 C 1081.738281 43.589844 1081.738281 43.589844 1081.515625 43.589844 C 1081.238281 43.890625 1080.664062 44.3125 1079.488281 44.3125 L 1079.488281 44.652344 C 1079.753906 44.652344 1080.328125 44.652344 1080.953125 44.351562 L 1080.953125 50.328125 C 1080.953125 50.738281 1080.914062 50.875 1079.914062 50.875 L 1079.550781 50.875 L 1079.550781 51.214844 C 1079.863281 51.1875 1080.976562 51.1875 1081.351562 51.1875 C 1081.726562 51.1875 1082.839844 51.1875 1083.140625 51.214844 L 1083.140625 50.875 L 1082.789062 50.875 C 1081.777344 50.875 1081.738281 50.738281 1081.738281 50.328125 Z M 1081.738281 43.863281 "/>
<path fill-rule="nonzero" fill="rgb(0%, 0%, 0%)" fill-opacity="1" d="M 96.046875 251.820312 L 93.183594 251.945312 L 93.183594 252.65625 C 94.207031 252.65625 94.320312 252.65625 94.320312 253.304688 L 94.320312 262.570312 L 93.183594 262.570312 L 93.183594 263.28125 C 93.570312 263.242188 94.734375 263.242188 95.183594 263.242188 C 95.632812 263.242188 96.808594 263.242188 97.183594 263.28125 L 97.183594 262.570312 L 96.046875 262.570312 Z M 96.046875 251.820312 "/>
<path fill-rule="nonzero" fill="rgb(0%, 0%, 0%)" fill-opacity="1" d="M 104.910156 249.308594 C 104.910156 249.207031 104.835938 249.207031 104.8125 249.207031 C 104.761719 249.207031 104.75 249.21875 104.609375 249.382812 C 104.546875 249.46875 104.074219 250.070312 104.0625 250.070312 C 103.6875 249.332031 102.921875 249.207031 102.449219 249.207031 C 100.984375 249.207031 99.660156 250.53125 99.660156 251.832031 C 99.660156 252.695312 100.1875 253.195312 100.75 253.394531 C 100.875 253.433594 101.546875 253.621094 101.886719 253.707031 C 102.472656 253.855469 102.625 253.90625 102.875 254.15625 C 102.910156 254.21875 103.148438 254.480469 103.148438 255.019531 C 103.148438 256.09375 102.160156 257.195312 101.011719 257.195312 C 100.074219 257.195312 99.023438 256.792969 99.023438 255.507812 C 99.023438 255.28125 99.074219 255.007812 99.097656 254.894531 C 99.097656 254.855469 99.109375 254.808594 99.109375 254.78125 C 99.109375 254.730469 99.097656 254.683594 99 254.683594 C 98.898438 254.683594 98.886719 254.695312 98.835938 254.894531 L 98.25 257.246094 C 98.25 257.257812 98.210938 257.40625 98.210938 257.417969 C 98.210938 257.519531 98.296875 257.519531 98.324219 257.519531 C 98.375 257.519531 98.386719 257.507812 98.523438 257.34375 L 99.046875 256.65625 C 99.324219 257.070312 99.921875 257.519531 100.984375 257.519531 C 102.460938 257.519531 103.824219 256.09375 103.824219 254.65625 C 103.824219 254.167969 103.710938 253.746094 103.273438 253.320312 C 103.023438 253.082031 102.824219 253.019531 101.761719 252.746094 C 101 252.542969 100.898438 252.507812 100.6875 252.320312 C 100.484375 252.132812 100.347656 251.855469 100.347656 251.46875 C 100.347656 250.496094 101.324219 249.519531 102.410156 249.519531 C 103.535156 249.519531 104.0625 250.207031 104.0625 251.292969 C 104.0625 251.59375 104 251.894531 104 251.945312 C 104 252.042969 104.097656 252.042969 104.136719 252.042969 C 104.234375 252.042969 104.25 252.019531 104.285156 251.832031 Z M 104.910156 249.308594 "/>
<path fill-rule="nonzero" fill="rgb(0%, 0%, 0%)" fill-opacity="1" d="M 156.25 258.21875 C 156.25 256.65625 155.578125 255.84375 153.75 255.84375 C 152.089844 255.84375 151.277344 257.019531 151.050781 257.519531 L 151.027344 257.519531 L 151.027344 251.820312 L 148.175781 251.945312 L 148.175781 252.65625 C 149.1875 252.65625 149.3125 252.65625 149.3125 253.304688 L 149.3125 262.570312 L 148.175781 262.570312 L 148.175781 263.28125 C 148.550781 263.242188 149.738281 263.242188 150.203125 263.242188 C 150.664062 263.242188 151.875 263.242188 152.25 263.28125 L 152.25 262.570312 L 151.113281 262.570312 L 151.113281 259.054688 C 151.113281 257.269531 152.4375 256.394531 153.488281 256.394531 C 154.101562 256.394531 154.453125 256.78125 154.453125 258.042969 L 154.453125 262.570312 L 153.3125 262.570312 L 153.3125 263.28125 C 153.6875 263.242188 154.875 263.242188 155.339844 263.242188 C 155.800781 263.242188 157.015625 263.242188 157.390625 263.28125 L 157.390625 262.570312 L 156.25 262.570312 Z M 156.25 258.21875 "/>
<path fill-rule="nonzero" fill="rgb(0%, 0%, 0%)" fill-opacity="1" d="M 165.09375 249.308594 C 165.09375 249.207031 165.019531 249.207031 164.996094 249.207031 C 164.945312 249.207031 164.933594 249.21875 164.796875 249.382812 C 164.734375 249.46875 164.257812 250.070312 164.246094 250.070312 C 163.871094 249.332031 163.109375 249.207031 162.632812 249.207031 C 161.171875 249.207031 159.84375 250.53125 159.84375 251.832031 C 159.84375 252.695312 160.371094 253.195312 160.933594 253.394531 C 161.058594 253.433594 161.734375 253.621094 162.070312 253.707031 C 162.65625 253.855469 162.808594 253.90625 163.058594 254.15625 C 163.09375 254.21875 163.332031 254.480469 163.332031 255.019531 C 163.332031 256.09375 162.34375 257.195312 161.195312 257.195312 C 160.257812 257.195312 159.207031 256.792969 159.207031 255.507812 C 159.207031 255.28125 159.257812 255.007812 159.28125 254.894531 C 159.28125 254.855469 159.296875 254.808594 159.296875 254.78125 C 159.296875 254.730469 159.28125 254.683594 159.183594 254.683594 C 159.082031 254.683594 159.070312 254.695312 159.019531 254.894531 L 158.433594 257.246094 C 158.433594 257.257812 158.394531 257.40625 158.394531 257.417969 C 158.394531 257.519531 158.484375 257.519531 158.507812 257.519531 C 158.558594 257.519531 158.570312 257.507812 158.707031 257.34375 L 159.234375 256.65625 C 159.507812 257.070312 160.109375 257.519531 161.171875 257.519531 C 162.644531 257.519531 164.007812 256.09375 164.007812 254.65625 C 164.007812 254.167969 163.894531 253.746094 163.457031 253.320312 C 163.207031 253.082031 163.007812 253.019531 161.945312 252.746094 C 161.183594 252.542969 161.082031 252.507812 160.871094 252.320312 C 160.671875 252.132812 160.53125 251.855469 160.53125 251.46875 C 160.53125 250.496094 161.507812 249.519531 162.59375 249.519531 C 163.71875 249.519531 164.246094 250.207031 164.246094 251.292969 C 164.246094 251.59375 164.183594 251.894531 164.183594 251.945312 C 164.183594 252.042969 164.28125 252.042969 164.320312 252.042969 C 164.421875 252.042969 164.433594 252.019531 164.46875 251.832031 Z M 165.09375 249.308594 "/>
<path fill-rule="nonzero" fill="rgb(0%, 0%, 0%)" fill-opacity="1" d="M 571.503906 169.191406 L 571.503906 169.617188 C 572.640625 169.617188 572.828125 169.617188 572.828125 170.367188 L 572.828125 179.304688 C 572.828125 180.054688 572.640625 180.054688 571.503906 180.054688 L 571.503906 180.480469 L 576.753906 180.480469 C 579.414062 180.480469 581.554688 178.027344 581.554688 174.929688 C 581.554688 171.804688 579.453125 169.191406 576.753906 169.191406 Z M 574.578125 180.054688 C 573.914062 180.054688 573.878906 179.964844 573.878906 179.402344 L 573.878906 170.265625 C 573.878906 169.703125 573.914062 169.617188 574.578125 169.617188 L 576.429688 169.617188 C 577.789062 169.617188 580.328125 170.429688 580.328125 174.929688 C 580.328125 177.253906 579.640625 178.203125 579.328125 178.640625 C 578.941406 179.152344 577.992188 180.054688 576.429688 180.054688 Z M 574.578125 180.054688 "/>
<path fill-rule="nonzero" fill="rgb(0%, 0%, 0%)" fill-opacity="1" d="M 596.152344 170.679688 C 596.304688 170.230469 596.554688 169.652344 597.503906 169.617188 L 597.503906 169.191406 C 597.230469 169.203125 596.652344 169.230469 596.355469 169.230469 C 595.941406 169.230469 595.214844 169.230469 594.816406 169.191406 L 594.816406 169.617188 C 595.554688 169.640625 595.867188 170.054688 595.867188 170.453125 C 595.867188 170.566406 595.855469 170.628906 595.792969 170.816406 L 593.230469 178.980469 L 590.527344 170.378906 C 590.480469 170.214844 590.464844 170.152344 590.464844 170.078125 C 590.464844 169.617188 591.191406 169.617188 591.503906 169.617188 L 591.503906 169.191406 C 591.027344 169.230469 590.203125 169.230469 589.691406 169.230469 C 589.277344 169.230469 588.527344 169.230469 588.152344 169.191406 L 588.152344 169.617188 C 588.917969 169.617188 589.117188 169.667969 589.277344 169.964844 C 589.339844 170.117188 589.605469 170.980469 589.605469 171.027344 C 589.605469 171.089844 589.578125 171.191406 589.554688 171.242188 L 587.128906 178.953125 L 584.441406 170.378906 C 584.355469 170.152344 584.355469 170.117188 584.355469 170.078125 C 584.355469 169.617188 585.078125 169.617188 585.417969 169.617188 L 585.417969 169.191406 C 584.929688 169.230469 584.105469 169.230469 583.589844 169.230469 C 583.167969 169.230469 582.441406 169.230469 582.042969 169.191406 L 582.042969 169.617188 C 583.027344 169.617188 583.105469 169.714844 583.265625 170.253906 L 586.492188 180.464844 C 586.566406 180.714844 586.566406 180.742188 586.714844 180.742188 C 586.855469 180.742188 586.902344 180.714844 586.964844 180.480469 L 589.777344 171.515625 L 592.578125 180.480469 C 592.652344 180.714844 592.703125 180.742188 592.828125 180.742188 C 592.980469 180.742188 592.980469 180.714844 593.066406 180.464844 Z M 596.152344 170.679688 "/>
<path fill-rule="nonzero" fill="rgb(0%, 0%, 0%)" fill-opacity="1" d="M 607.945312 169.242188 L 598.40625 169.242188 L 598.132812 172.890625 L 598.429688 172.890625 C 598.644531 170.152344 598.882812 169.667969 601.417969 169.667969 C 601.71875 169.667969 602.195312 169.667969 602.332031 169.691406 C 602.644531 169.742188 602.644531 169.941406 602.644531 170.316406 L 602.644531 179.265625 C 602.644531 179.867188 602.59375 180.054688 601.21875 180.054688 L 600.757812 180.054688 L 600.757812 180.480469 C 601.554688 180.464844 602.382812 180.441406 603.195312 180.441406 C 603.992188 180.441406 604.820312 180.464844 605.617188 180.480469 L 605.617188 180.054688 L 605.15625 180.054688 C 603.78125 180.054688 603.730469 179.867188 603.730469 179.265625 L 603.730469 170.316406 C 603.730469 169.953125 603.730469 169.753906 604.03125 169.691406 C 604.167969 169.667969 604.644531 169.667969 604.945312 169.667969 C 607.46875 169.667969 607.71875 170.152344 607.929688 172.890625 L 608.230469 172.890625 Z M 607.945312 169.242188 "/>
<path fill-rule="nonzero" fill="rgb(0%, 0%, 0%)" fill-opacity="1" d="M 616.265625 170.980469 C 616.464844 170.980469 616.664062 170.980469 616.664062 170.753906 C 616.664062 170.519531 616.464844 170.519531 616.265625 170.519531 L 610.050781 170.519531 C 609.863281 170.519531 609.652344 170.519531 609.652344 170.753906 C 609.652344 170.980469 609.863281 170.980469 610.050781 170.980469 Z M 616.265625 170.980469 "/>
<path fill-rule="nonzero" fill="rgb(0%, 0%, 0%)" fill-opacity="1" d="M 620.929688 166.269531 C 620.929688 165.992188 620.929688 165.992188 620.703125 165.992188 C 620.429688 166.292969 619.855469 166.71875 618.679688 166.71875 L 618.679688 167.054688 C 618.941406 167.054688 619.515625 167.054688 620.140625 166.753906 L 620.140625 172.730469 C 620.140625 173.144531 620.105469 173.28125 619.105469 173.28125 L 618.742188 173.28125 L 618.742188 173.617188 C 619.054688 173.59375 620.167969 173.59375 620.542969 173.59375 C 620.917969 173.59375 622.027344 173.59375 622.328125 173.617188 L 622.328125 173.28125 L 621.980469 173.28125 C 620.964844 173.28125 620.929688 173.144531 620.929688 172.730469 Z M 620.929688 166.269531 "/>
<path fill-rule="nonzero" fill="rgb(0%, 0%, 0%)" fill-opacity="1" d="M 308.695312 226.792969 L 308.695312 227.21875 C 309.835938 227.21875 310.023438 227.21875 310.023438 227.96875 L 310.023438 236.90625 C 310.023438 237.65625 309.835938 237.65625 308.695312 237.65625 L 308.695312 238.082031 L 313.945312 238.082031 C 316.609375 238.082031 318.746094 235.628906 318.746094 232.53125 C 318.746094 229.40625 316.648438 226.792969 313.945312 226.792969 Z M 311.773438 237.65625 C 311.109375 237.65625 311.070312 237.566406 311.070312 237.003906 L 311.070312 227.867188 C 311.070312 227.304688 311.109375 227.21875 311.773438 227.21875 L 313.621094 227.21875 C 314.984375 227.21875 317.523438 228.03125 317.523438 232.53125 C 317.523438 234.855469 316.835938 235.804688 316.523438 236.242188 C 316.132812 236.753906 315.183594 237.65625 313.621094 237.65625 Z M 311.773438 237.65625 "/>
<path fill-rule="nonzero" fill="rgb(0%, 0%, 0%)" fill-opacity="1" d="M 333.347656 228.28125 C 333.496094 227.832031 333.746094 227.253906 334.695312 227.21875 L 334.695312 226.792969 C 334.421875 226.804688 333.847656 226.832031 333.546875 226.832031 C 333.132812 226.832031 332.410156 226.832031 332.007812 226.792969 L 332.007812 227.21875 C 332.746094 227.242188 333.058594 227.65625 333.058594 228.054688 C 333.058594 228.167969 333.046875 228.230469 332.984375 228.417969 L 330.421875 236.582031 L 327.722656 227.980469 C 327.671875 227.816406 327.660156 227.753906 327.660156 227.679688 C 327.660156 227.21875 328.382812 227.21875 328.695312 227.21875 L 328.695312 226.792969 C 328.222656 226.832031 327.398438 226.832031 326.882812 226.832031 C 326.472656 226.832031 325.722656 226.832031 325.347656 226.792969 L 325.347656 227.21875 C 326.109375 227.21875 326.308594 227.269531 326.472656 227.566406 C 326.535156 227.71875 326.796875 228.582031 326.796875 228.628906 C 326.796875 228.691406 326.773438 228.792969 326.746094 228.84375 L 324.320312 236.554688 L 321.632812 227.980469 C 321.546875 227.753906 321.546875 227.71875 321.546875 227.679688 C 321.546875 227.21875 322.273438 227.21875 322.609375 227.21875 L 322.609375 226.792969 C 322.121094 226.832031 321.296875 226.832031 320.785156 226.832031 C 320.359375 226.832031 319.632812 226.832031 319.234375 226.792969 L 319.234375 227.21875 C 320.222656 227.21875 320.296875 227.316406 320.460938 227.855469 L 323.683594 238.066406 C 323.757812 238.316406 323.757812 238.34375 323.910156 238.34375 C 324.046875 238.34375 324.097656 238.316406 324.160156 238.082031 L 326.972656 229.117188 L 329.773438 238.082031 C 329.847656 238.316406 329.898438 238.34375 330.023438 238.34375 C 330.171875 238.34375 330.171875 238.316406 330.257812 238.066406 Z M 333.347656 228.28125 "/>
<path fill-rule="nonzero" fill="rgb(0%, 0%, 0%)" fill-opacity="1" d="M 345.136719 226.84375 L 335.601562 226.84375 L 335.324219 230.492188 L 335.625 230.492188 C 335.835938 227.753906 336.074219 227.269531 338.613281 227.269531 C 338.914062 227.269531 339.386719 227.269531 339.523438 227.292969 C 339.835938 227.34375 339.835938 227.542969 339.835938 227.917969 L 339.835938 236.867188 C 339.835938 237.46875 339.789062 237.65625 338.414062 237.65625 L 337.949219 237.65625 L 337.949219 238.082031 C 338.75 238.066406 339.574219 238.042969 340.386719 238.042969 C 341.1875 238.042969 342.011719 238.066406 342.8125 238.082031 L 342.8125 237.65625 L 342.351562 237.65625 C 340.976562 237.65625 340.925781 237.46875 340.925781 236.867188 L 340.925781 227.917969 C 340.925781 227.554688 340.925781 227.355469 341.226562 227.292969 C 341.363281 227.269531 341.835938 227.269531 342.136719 227.269531 C 344.664062 227.269531 344.914062 227.753906 345.125 230.492188 L 345.425781 230.492188 Z M 345.136719 226.84375 "/>
<path fill-rule="nonzero" fill="rgb(0%, 0%, 0%)" fill-opacity="1" d="M 353.457031 228.582031 C 353.660156 228.582031 353.859375 228.582031 353.859375 228.355469 C 353.859375 228.121094 353.660156 228.121094 353.457031 228.121094 L 347.246094 228.121094 C 347.058594 228.121094 346.847656 228.121094 346.847656 228.355469 C 346.847656 228.582031 347.058594 228.582031 347.246094 228.582031 Z M 353.457031 228.582031 "/>
<path fill-rule="nonzero" fill="rgb(0%, 0%, 0%)" fill-opacity="1" d="M 358.125 223.871094 C 358.125 223.59375 358.125 223.59375 357.898438 223.59375 C 357.625 223.894531 357.046875 224.320312 355.875 224.320312 L 355.875 224.65625 C 356.136719 224.65625 356.710938 224.65625 357.335938 224.355469 L 357.335938 230.332031 C 357.335938 230.746094 357.296875 230.882812 356.296875 230.882812 L 355.9375 230.882812 L 355.9375 231.21875 C 356.25 231.195312 357.359375 231.195312 357.734375 231.195312 C 358.109375 231.195312 359.222656 231.195312 359.523438 231.21875 L 359.523438 230.882812 L 359.171875 230.882812 C 358.160156 230.882812 358.125 230.746094 358.125 230.332031 Z M 358.125 223.871094 "/>
</svg>
